<svg width="24" height="40" viewBox="0 0 24 40" fill="none" xmlns="http://www.w3.org/2000/svg">
<path d="M18 16.5C18.825 16.5 19.5 15.825 19.5 15C19.5 14.175 18.825 13.5 18 13.5C17.175 13.5 16.5 14.175 16.5 15C16.5 15.825 17.175 16.5 18 16.5ZM18 18.5C17.175 18.5 16.5 19.175 16.5 20C16.5 20.825 17.175 21.5 18 21.5C18.825 21.5 19.5 20.825 19.5 20C19.5 19.175 18.825 18.5 18 18.5ZM18 23.5C17.175 23.5 16.5 24.175 16.5 25C16.5 25.825 17.175 26.5 18 26.5C18.825 26.5 19.5 25.825 19.5 25C19.5 24.175 18.825 23.5 18 23.5Z" fill="#2688EB"/>
</svg>
